<svg xmlns="http://www.w3.org/2000/svg" viewBox="0 0 319.43 240.09"><defs><style>.cls-1{fill:#84e0cb;}</style></defs><g id="레이어_2" data-name="레이어 2"><g id="레이어_1-2" data-name="레이어 1"><path class="cls-1" d="M84.55,34.46A13.54,13.54,0,1,1,71,48,13.55,13.55,0,0,1,84.55,34.46M84.55,0a48,48,0,1,0,48,48,48,48,0,0,0-48-48Z"/><path class="cls-1" d="M318.49,91.7c-2.93-31.55-18.65-59.67-29-75.15a14,14,0,0,0-20.64-3h0a14,14,0,0,0-2.63,18.54c8.63,12.88,22,36.52,24.39,62.17a192.51,192.51,0,0,1,.8,19.55c-1,10.24-4.89,22.62-15.3,31-14.57,11.69-35.77,13.66-51,13.26-12.11-.32-21.06-2.1-28.17-5.6-4.17-2.05-5.89-4.34-6.09-5,.32-.88,2.79-3.47,7.24-5,5.46-1.86,13-2.43,20.94-3,17.09-1.28,38.35-2.88,51.71-19.89a37.07,37.07,0,0,0,3-40.56c-5.86-10.48-16.69-18-29.72-20.55s-25.32.14-34.64,2.78c-27.83,7.87-54.65,23.2-79.73,45.57a280.1,280.1,0,0,0-23,22.88c-13.6-10.4-30.6-17.13-49.74-19.64A131.49,131.49,0,0,0,11,112.34,14,14,0,0,0,.87,130.86v0A14,14,0,0,0,17,139.71c23.74-5.39,52.72-2.85,72.56,12.23a125.2,125.2,0,0,0-13.8,28c-5.28,15.63-5,29.87.8,41.17A35.63,35.63,0,0,0,99.08,239a31.6,31.6,0,0,0,8,1.05,28.21,28.21,0,0,0,15.75-4.7c6.93-4.62,11.79-12.16,14.45-22.43,5.4-20.85.92-44-11.44-62.69a247.29,247.29,0,0,1,22.44-22.52c21.89-19.52,45-32.81,68.72-39.52,6.31-1.78,14.47-3.65,21.59-2.25,4.82,1,8.91,3.53,10.7,6.73a9.28,9.28,0,0,1-.59,9.61c-5.74,7.31-18.39,8.26-31.79,9.27-9.37.71-19.06,1.43-27.91,4.46-16.28,5.58-26.55,18.22-26.17,32.21.33,12,8.24,22.73,21.72,29.36,10.86,5.35,23.51,8,39.8,8.47,23.5.62,43.28-3.57,59-12.48-1.86,7.44-3.77,13.83-5.4,18.85a14,14,0,0,0,7.89,17.25l0,0a14,14,0,0,0,18.73-8.57C311.64,179.79,322.73,137.21,318.49,91.7ZM110.21,205.94c-1.31,5.06-2.8,6.1-2.81,6.12-1,.31-4.53-1-5.9-3.7-2.24-4.36-2-11.26.81-19.43a90.38,90.38,0,0,1,5.55-12.87C111.69,185.83,112.67,196.43,110.21,205.94Z"/></g></g></svg>