<svg xmlns="http://www.w3.org/2000/svg" width="32.909" height="22.947" viewBox="0 0 32.909 22.947">
  <defs>
    <style>
      .cls-1 {
        fill: #b6b6b6;
      }

      .cls-2 {
        fill: #fff;
        font-size: 12px;
        font-family: FranklinGothic-Heavy, Franklin Gothic;
        font-weight: 800;
      }
    </style>
  </defs>
  <g id="그룹_367" data-name="그룹 367" transform="translate(-267.961 -369)">
    <g id="noun_Crown_164051" transform="translate(238.768 347.124)">
      <g id="그룹_365" data-name="그룹 365" transform="translate(29.193 21.876)">
        <path id="패스_351" data-name="패스 351" class="cls-1" d="M36.877,41.412H15.364A1.222,1.222,0,0,1,14.18,40.5c-.725-2.779-2.867-11.016-3.077-12.16a3.055,3.055,0,0,1,1.623-5.647,3.183,3.183,0,0,1,.649.068,3.061,3.061,0,0,1,1.6,5.065l3.783,4.529a.292.292,0,0,0,.444,0L23.872,27a3.052,3.052,0,0,1,2.248-5.125,3.187,3.187,0,0,1,.652.069A3.056,3.056,0,0,1,28.374,27l4.712,5.383a.284.284,0,0,0,.219.1.288.288,0,0,0,.226-.106l3.749-4.541a3.057,3.057,0,0,1,1.585-5.077,3.189,3.189,0,0,1,.65-.068,3.055,3.055,0,0,1,1.614,5.651c-.208,1.152-2.344,9.377-3.069,12.155A1.223,1.223,0,0,1,36.877,41.412Zm-20.884-2.04H36.247c.878-3.362,2.046-7.9,2.621-10.256L35.1,33.675a2.332,2.332,0,0,1-3.553.051L26.122,27.56l-.117.1L20.742,33.7a2.331,2.331,0,0,1-3.548-.037l-3.842-4.6C13.927,31.41,15.107,35.984,15.993,39.372ZM12.726,24.731a1.021,1.021,0,0,0-1.02,1.02,1.011,1.011,0,0,0,.66.948l.377.144.366-.149a1.025,1.025,0,0,0,.621-1.125,1.012,1.012,0,0,0-.773-.813A1.12,1.12,0,0,0,12.726,24.731Zm26.79,0a1.135,1.135,0,0,0-.232.025A1.018,1.018,0,0,0,39.14,26.7l.36.144.37-.139a1.008,1.008,0,0,0,.665-.95A1.021,1.021,0,0,0,39.515,24.732Zm-13.4-.816a1.021,1.021,0,0,0-1.02,1.02,1.01,1.01,0,0,0,.659.948l.364.139.359-.139a1.017,1.017,0,0,0-.129-1.943A1.174,1.174,0,0,0,26.12,23.915Z" transform="translate(-9.666 -21.876)"/>
        <path id="패스_352" data-name="패스 352" class="cls-1" d="M43.594,75.165H21.765a1.02,1.02,0,0,1-1.02-1.02h0a1.02,1.02,0,0,1,1.02-1.02H43.594a1.02,1.02,0,0,1,1.02,1.02h0A1.02,1.02,0,0,1,43.594,75.165Z" transform="translate(-16.225 -52.218)"/>
        <path id="패스_353" data-name="패스 353" class="cls-1" d="M5.877,18.242,2.4,6.017h1.57L9.13,11.849l1.57-.9,5.047-6.168h1.682l5.607,7.065h1.683l4.261-5.832h1.233l-2.69,12.225Z"/>
      </g>
    </g>
    <text id="_2" data-name="2" class="cls-2" transform="translate(281 387)"><tspan x="0" y="0">2</tspan></text>
  </g>
</svg>
